<svg xmlns="http://www.w3.org/2000/svg" width="114.592" height="30" viewBox="0 0 114.592 30">
  <g id="Group_998" data-name="Group 998" transform="translate(0)">
    <path id="Path_345" data-name="Path 345" d="M494.851,257.98a7.162,7.162,0,0,1,2.182-5.43,7.784,7.784,0,0,1,10.605.01,7.834,7.834,0,0,1,0,10.828,7.8,7.8,0,0,1-10.605,0A7.135,7.135,0,0,1,494.851,257.98Zm4.577-3.258a4.809,4.809,0,0,0,0,6.465,4.346,4.346,0,0,0,5.815,0,4.838,4.838,0,0,0,0-6.465,4.315,4.315,0,0,0-5.815,0Z" transform="translate(-454.486 -242.97)" fill="#191b3f"/>
    <path id="Path_346" data-name="Path 346" d="M546.285,271.172a5.458,5.458,0,0,1-.09-1.125,2.524,2.524,0,0,1-1.238,1.024,4.5,4.5,0,0,1-1.755.349,4,4,0,0,1-3.116-1.249,4.456,4.456,0,0,1-1.136-3.116V259.99h3.42v6.345a2.072,2.072,0,0,0,.461,1.4,1.663,1.663,0,0,0,1.339.54,1.8,1.8,0,0,0,1.361-.529,1.916,1.916,0,0,0,.506-1.383V259.99h3.42v9.18a16.229,16.229,0,0,0,.113,2Z" transform="translate(-482.048 -248.92)" fill="#191b3f"/>
    <path id="Path_347" data-name="Path 347" d="M576.534,251.409v3.263h2.182v2.993h-2.182v4.185q0,1.171,1.237,1.17a4.091,4.091,0,0,0,.9-.112v2.835a4.059,4.059,0,0,1-1.777.315,3.768,3.768,0,0,1-2.734-.968,3.489,3.489,0,0,1-1-2.633v-4.792h-1.98v-2.993h.563a1.62,1.62,0,0,0,1.294-.506,1.939,1.939,0,0,0,.439-1.317v-1.44Z" transform="translate(-502.191 -243.557)" fill="#191b3f"/>
    <path id="Path_348" data-name="Path 348" d="M599.795,262.659h-3.308v-16.29h3.353v6.165a2.848,2.848,0,0,1,1.26-.945,4.912,4.912,0,0,1,1.98-.383,4.751,4.751,0,0,1,3.792,1.631,6.2,6.2,0,0,1,1.406,4.2,6.046,6.046,0,0,1-1.5,4.219,4.94,4.94,0,0,1-3.836,1.654,4.228,4.228,0,0,1-1.913-.417,2.907,2.907,0,0,1-1.237-1.091Zm5.063-5.6a2.764,2.764,0,0,0-.72-2.059,2.463,2.463,0,0,0-1.8-.708,2.5,2.5,0,0,0-1.811.708,3.245,3.245,0,0,0,.011,4.117,2.469,2.469,0,0,0,1.8.731,2.432,2.432,0,0,0,1.788-.731A2.783,2.783,0,0,0,604.857,257.056Z" transform="translate(-518.008 -240.407)" fill="#191b3f"/>
    <path id="Path_349" data-name="Path 349" d="M637.076,258.849a5.817,5.817,0,0,1,4.241,1.665,6.186,6.186,0,0,1,0,8.516,6.174,6.174,0,0,1-8.471-.011,6.129,6.129,0,0,1,0-8.494A5.807,5.807,0,0,1,637.076,258.849Zm0,8.707a2.451,2.451,0,0,0,1.789-.72,2.776,2.776,0,0,0,.731-2.07,2.737,2.737,0,0,0-.731-2.059,2.582,2.582,0,0,0-3.566.011,2.721,2.721,0,0,0-.742,2.047,2.758,2.758,0,0,0,.742,2.059A2.444,2.444,0,0,0,637.076,267.556Z" transform="translate(-539.664 -248.207)" fill="#191b3f"/>
    <path id="Path_350" data-name="Path 350" d="M661,271.832l3.848-5.58-3.915-5.6h4.028l2,3.06,1.958-3.06h3.825l-3.87,5.467q3.758,5.356,4.005,5.715h-4.005l-2.07-3.15q-.338.518-1.08,1.665t-.967,1.485Z" transform="translate(-558.285 -249.333)" fill="#191b3f"/>
    <g id="Group_997" data-name="Group 997">
      <path id="Path_351" data-name="Path 351" d="M409.711,233.47v12h-7.448v7.5H390.211a3,3,0,0,1-3-3v-16.5a3,3,0,0,1,3-3h16.5A3,3,0,0,1,409.711,233.47Z" transform="translate(-387.211 -230.47)" fill="#7540ee" fill-rule="evenodd"/>
      <rect id="Rectangle_672" data-name="Rectangle 672" width="7.447" height="7.5" transform="translate(15.052 15)" fill="#352cab"/>
      <path id="Path_352" data-name="Path 352" d="M442.351,271.97v12a1.5,1.5,0,0,1-1.5,1.5h-12a1.5,1.5,0,0,1-1.5-1.5v-6H434.8v-7.5h6.052A1.5,1.5,0,0,1,442.351,271.97Z" transform="translate(-412.298 -255.47)" fill="#06d2dd" fill-rule="evenodd"/>
    </g>
  </g>
</svg>
